<mxfile host="Electron" agent="Mozilla/5.0 (Windows NT 10.0; Win64; x64) AppleWebKit/537.36 (KHTML, like Gecko) draw.io/28.2.5 Chrome/138.0.7204.251 Electron/37.6.1 Safari/537.36" version="28.2.5">
  <diagram name="Leht-1" id="4p1s0bG-C9lkEBlRn2rG">
    <mxGraphModel dx="729" dy="848" grid="1" gridSize="10" guides="1" tooltips="1" connect="1" arrows="1" fold="1" page="1" pageScale="1" pageWidth="827" pageHeight="1169" math="0" shadow="0">
      <root>
        <mxCell id="0" />
        <mxCell id="1" parent="0" />
        <mxCell id="07DwHyM8mWbAU5XU0Gau-3" value="" style="edgeStyle=orthogonalEdgeStyle;rounded=0;orthogonalLoop=1;jettySize=auto;html=1;" edge="1" parent="1" source="07DwHyM8mWbAU5XU0Gau-1" target="07DwHyM8mWbAU5XU0Gau-2">
          <mxGeometry relative="1" as="geometry" />
        </mxCell>
        <mxCell id="07DwHyM8mWbAU5XU0Gau-1" value="Algus" style="ellipse;whiteSpace=wrap;html=1;" vertex="1" parent="1">
          <mxGeometry x="190" y="320" width="120" height="40" as="geometry" />
        </mxCell>
        <mxCell id="07DwHyM8mWbAU5XU0Gau-10" value="" style="edgeStyle=orthogonalEdgeStyle;rounded=0;orthogonalLoop=1;jettySize=auto;html=1;" edge="1" parent="1" source="07DwHyM8mWbAU5XU0Gau-2" target="07DwHyM8mWbAU5XU0Gau-9">
          <mxGeometry relative="1" as="geometry" />
        </mxCell>
        <mxCell id="07DwHyM8mWbAU5XU0Gau-2" value="Kuva kasutajale tekst&lt;div&gt;&quot;joonistan sulle kolmnurga&quot;&lt;/div&gt;" style="shape=parallelogram;perimeter=parallelogramPerimeter;whiteSpace=wrap;html=1;fixedSize=1;" vertex="1" parent="1">
          <mxGeometry x="170" y="400" width="160" height="60" as="geometry" />
        </mxCell>
        <mxCell id="07DwHyM8mWbAU5XU0Gau-12" value="" style="edgeStyle=orthogonalEdgeStyle;rounded=0;orthogonalLoop=1;jettySize=auto;html=1;" edge="1" parent="1" source="07DwHyM8mWbAU5XU0Gau-9" target="07DwHyM8mWbAU5XU0Gau-11">
          <mxGeometry relative="1" as="geometry" />
        </mxCell>
        <mxCell id="07DwHyM8mWbAU5XU0Gau-9" value="ootame kuni kasutaja&lt;div&gt;sisestab täisarvu&lt;/div&gt;&lt;div&gt;muutujasse&lt;/div&gt;&lt;div&gt;kolmnurgaSuurus&lt;/div&gt;" style="whiteSpace=wrap;html=1;" vertex="1" parent="1">
          <mxGeometry x="190" y="520" width="120" height="60" as="geometry" />
        </mxCell>
        <mxCell id="07DwHyM8mWbAU5XU0Gau-14" value="" style="edgeStyle=orthogonalEdgeStyle;rounded=0;orthogonalLoop=1;jettySize=auto;html=1;" edge="1" parent="1" source="07DwHyM8mWbAU5XU0Gau-11" target="07DwHyM8mWbAU5XU0Gau-13">
          <mxGeometry relative="1" as="geometry" />
        </mxCell>
        <mxCell id="07DwHyM8mWbAU5XU0Gau-11" value="Tekitame tsüklimuutuja &quot;i&quot;&lt;div&gt;millele paneme&lt;/div&gt;&lt;div&gt;algväärtuseks täisvaru 1&lt;/div&gt;" style="shape=parallelogram;perimeter=parallelogramPerimeter;whiteSpace=wrap;html=1;fixedSize=1;" vertex="1" parent="1">
          <mxGeometry x="170" y="630" width="160" height="60" as="geometry" />
        </mxCell>
        <mxCell id="07DwHyM8mWbAU5XU0Gau-16" value="" style="edgeStyle=orthogonalEdgeStyle;rounded=0;orthogonalLoop=1;jettySize=auto;html=1;" edge="1" parent="1" source="07DwHyM8mWbAU5XU0Gau-13" target="07DwHyM8mWbAU5XU0Gau-15">
          <mxGeometry relative="1" as="geometry" />
        </mxCell>
        <mxCell id="07DwHyM8mWbAU5XU0Gau-18" value="Ei" style="edgeLabel;html=1;align=center;verticalAlign=middle;resizable=0;points=[];" vertex="1" connectable="0" parent="07DwHyM8mWbAU5XU0Gau-16">
          <mxGeometry x="-0.0333" y="-1" relative="1" as="geometry">
            <mxPoint as="offset" />
          </mxGeometry>
        </mxCell>
        <mxCell id="07DwHyM8mWbAU5XU0Gau-20" style="edgeStyle=orthogonalEdgeStyle;rounded=0;orthogonalLoop=1;jettySize=auto;html=1;entryX=0.5;entryY=0;entryDx=0;entryDy=0;" edge="1" parent="1" source="07DwHyM8mWbAU5XU0Gau-13" target="07DwHyM8mWbAU5XU0Gau-17">
          <mxGeometry relative="1" as="geometry">
            <Array as="points">
              <mxPoint x="120" y="780" />
              <mxPoint x="120" y="1480" />
              <mxPoint x="250" y="1480" />
            </Array>
          </mxGeometry>
        </mxCell>
        <mxCell id="07DwHyM8mWbAU5XU0Gau-21" value="JAH" style="edgeLabel;html=1;align=center;verticalAlign=middle;resizable=0;points=[];" vertex="1" connectable="0" parent="07DwHyM8mWbAU5XU0Gau-20">
          <mxGeometry x="-0.6216" y="4" relative="1" as="geometry">
            <mxPoint as="offset" />
          </mxGeometry>
        </mxCell>
        <mxCell id="07DwHyM8mWbAU5XU0Gau-13" value="Kas muutuja&lt;div&gt;&quot;i&quot; väärtus on suurem kui muutuja &quot;kolmnurgaSuurus&quot;&lt;/div&gt;&lt;div&gt;väärtus&lt;/div&gt;" style="rhombus;whiteSpace=wrap;html=1;" vertex="1" parent="1">
          <mxGeometry x="155" y="740" width="190" height="80" as="geometry" />
        </mxCell>
        <mxCell id="07DwHyM8mWbAU5XU0Gau-23" value="" style="edgeStyle=orthogonalEdgeStyle;rounded=0;orthogonalLoop=1;jettySize=auto;html=1;" edge="1" parent="1" source="07DwHyM8mWbAU5XU0Gau-15" target="07DwHyM8mWbAU5XU0Gau-22">
          <mxGeometry relative="1" as="geometry" />
        </mxCell>
        <mxCell id="07DwHyM8mWbAU5XU0Gau-15" value="Asetame käsureale uue,&lt;div&gt;tühja rea kasutades &quot;Console.writeLine&quot;&lt;/div&gt;" style="shape=parallelogram;perimeter=parallelogramPerimeter;whiteSpace=wrap;html=1;fixedSize=1;" vertex="1" parent="1">
          <mxGeometry x="160" y="880" width="180" height="60" as="geometry" />
        </mxCell>
        <mxCell id="07DwHyM8mWbAU5XU0Gau-17" value="Lõpp" style="ellipse;whiteSpace=wrap;html=1;" vertex="1" parent="1">
          <mxGeometry x="190" y="1510" width="120" height="40" as="geometry" />
        </mxCell>
        <mxCell id="07DwHyM8mWbAU5XU0Gau-27" value="" style="edgeStyle=orthogonalEdgeStyle;rounded=0;orthogonalLoop=1;jettySize=auto;html=1;" edge="1" parent="1" source="07DwHyM8mWbAU5XU0Gau-22" target="07DwHyM8mWbAU5XU0Gau-24">
          <mxGeometry relative="1" as="geometry" />
        </mxCell>
        <mxCell id="07DwHyM8mWbAU5XU0Gau-30" value="" style="edgeStyle=orthogonalEdgeStyle;rounded=0;orthogonalLoop=1;jettySize=auto;html=1;" edge="1" parent="1" source="07DwHyM8mWbAU5XU0Gau-22" target="07DwHyM8mWbAU5XU0Gau-29">
          <mxGeometry relative="1" as="geometry">
            <Array as="points">
              <mxPoint x="410" y="1040" />
              <mxPoint x="410" y="1360" />
              <mxPoint x="250" y="1360" />
            </Array>
          </mxGeometry>
        </mxCell>
        <mxCell id="07DwHyM8mWbAU5XU0Gau-31" value="JAH" style="edgeLabel;html=1;align=center;verticalAlign=middle;resizable=0;points=[];" vertex="1" connectable="0" parent="07DwHyM8mWbAU5XU0Gau-30">
          <mxGeometry x="-0.3478" y="4" relative="1" as="geometry">
            <mxPoint as="offset" />
          </mxGeometry>
        </mxCell>
        <mxCell id="07DwHyM8mWbAU5XU0Gau-22" value="Kas muutuja&lt;div&gt;&quot;j&quot; väärtus on suurem kui&lt;/div&gt;&lt;div&gt;muutuja &quot;i&quot; väärtus?&lt;/div&gt;" style="rhombus;whiteSpace=wrap;html=1;" vertex="1" parent="1">
          <mxGeometry x="140" y="1000" width="220" height="80" as="geometry" />
        </mxCell>
        <mxCell id="07DwHyM8mWbAU5XU0Gau-26" value="" style="edgeStyle=orthogonalEdgeStyle;rounded=0;orthogonalLoop=1;jettySize=auto;html=1;" edge="1" parent="1" source="07DwHyM8mWbAU5XU0Gau-24" target="07DwHyM8mWbAU5XU0Gau-25">
          <mxGeometry relative="1" as="geometry" />
        </mxCell>
        <mxCell id="07DwHyM8mWbAU5XU0Gau-24" value="Kirjutame eksisteerivale&lt;div&gt;käsureale juurde sõne &quot;▓█&quot;.&lt;/div&gt;" style="shape=parallelogram;perimeter=parallelogramPerimeter;whiteSpace=wrap;html=1;fixedSize=1;" vertex="1" parent="1">
          <mxGeometry x="190" y="1120" width="120" height="60" as="geometry" />
        </mxCell>
        <mxCell id="07DwHyM8mWbAU5XU0Gau-32" style="edgeStyle=orthogonalEdgeStyle;rounded=0;orthogonalLoop=1;jettySize=auto;html=1;entryX=0.5;entryY=0;entryDx=0;entryDy=0;" edge="1" parent="1" source="07DwHyM8mWbAU5XU0Gau-25" target="07DwHyM8mWbAU5XU0Gau-22">
          <mxGeometry relative="1" as="geometry">
            <mxPoint x="130" y="970" as="targetPoint" />
            <Array as="points">
              <mxPoint x="140" y="1300" />
              <mxPoint x="140" y="980" />
              <mxPoint x="250" y="980" />
            </Array>
          </mxGeometry>
        </mxCell>
        <mxCell id="07DwHyM8mWbAU5XU0Gau-25" value="Inkrementeerime&lt;div&gt;muutujat &quot;j&quot;&lt;/div&gt;&lt;div&gt;ühe võrra&lt;/div&gt;" style="shape=parallelogram;perimeter=parallelogramPerimeter;whiteSpace=wrap;html=1;fixedSize=1;" vertex="1" parent="1">
          <mxGeometry x="190" y="1270" width="120" height="60" as="geometry" />
        </mxCell>
        <mxCell id="07DwHyM8mWbAU5XU0Gau-36" style="edgeStyle=orthogonalEdgeStyle;rounded=0;orthogonalLoop=1;jettySize=auto;html=1;entryX=1;entryY=0.5;entryDx=0;entryDy=0;" edge="1" parent="1" source="07DwHyM8mWbAU5XU0Gau-29" target="07DwHyM8mWbAU5XU0Gau-13">
          <mxGeometry relative="1" as="geometry">
            <Array as="points">
              <mxPoint x="450" y="1420" />
              <mxPoint x="450" y="780" />
            </Array>
          </mxGeometry>
        </mxCell>
        <mxCell id="07DwHyM8mWbAU5XU0Gau-29" value="Inkrementeerime&lt;div&gt;muutujat &quot;i&quot;&lt;/div&gt;&lt;div&gt;ühe võrrA&lt;/div&gt;" style="shape=parallelogram;perimeter=parallelogramPerimeter;whiteSpace=wrap;html=1;fixedSize=1;" vertex="1" parent="1">
          <mxGeometry x="190" y="1390" width="120" height="60" as="geometry" />
        </mxCell>
      </root>
    </mxGraphModel>
  </diagram>
</mxfile>
